<svg id="Layer_1" data-name="Layer 1" xmlns="http://www.w3.org/2000/svg" viewBox="0 0 292.65 137.33"><defs><style>.cls-1{fill:#0ab3ae;}.cls-2{fill:none;stroke:#0ab3ae;stroke-miterlimit:10;stroke-width:4px;}</style></defs><title>uiss logo</title><path class="cls-1" d="M323.65,256.08q-47-.55-47-61.72a271,271,0,0,1,5.45-51.46l31.18,8.18q-7.31,30-7.3,48.33,4.58,23.16,17.72,23.65,21.72-.24,21.72-37.68a238.3,238.3,0,0,0-3.13-36.15l28.22-12a323.59,323.59,0,0,1,2.32,38.87Q372.86,255.28,323.65,256.08Z" transform="translate(-276.68 -118.75)"/><circle class="cls-1" cx="33.54" cy="11.19" r="11.19"/><circle class="cls-1" cx="62.65" cy="11.19" r="11.19"/><path class="cls-1" d="M412,158.15q-9.74-.12-9.73-12.78a55.64,55.64,0,0,1,1.13-10.66l6.46,1.69a44.43,44.43,0,0,0-1.51,10c.63,3.2,1.85,4.84,3.66,4.9q4.5,0,4.5-7.8a49.68,49.68,0,0,0-.64-7.49l5.84-2.49a67.3,67.3,0,0,1,.48,8.05Q422.2,158,412,158.15Z" transform="translate(-276.68 -118.75)"/><path class="cls-1" d="M427.05,157.64,425,152.09a34,34,0,0,0,3.74.2c1.94,0,3-.82,3.25-2.46a1.44,1.44,0,0,0,0-.34c0-1-1.41-1.8-4.21-2.51s-4.23-2.33-4.26-4.85c0-1.25,0-2.26.08-3q.54-5.43,11.71-6.34l1,5.71H436q-5.52,0-5.85,2.85a1.46,1.46,0,0,0,0,.34q0,1.62,4.62,2.37t4.63,4.9v2.92Q439.27,157.27,427.05,157.64Z" transform="translate(-276.68 -118.75)"/><path class="cls-1" d="M440.2,157.55V132.82l4.5.4.83,11.39,3.75-11.78,7.44,1.2-7.39,12.5,6.82,6.92-5.48,4-4.93-9.61,0,8.65Z" transform="translate(-276.68 -118.75)"/><path class="cls-1" d="M467.27,158.15q-9.72-.12-9.72-12.78a56.39,56.39,0,0,1,1.12-10.66l6.46,1.69a45,45,0,0,0-1.51,10c.63,3.2,1.86,4.84,3.67,4.9q4.5,0,4.5-7.8a49.8,49.8,0,0,0-.65-7.49l5.85-2.49a67.3,67.3,0,0,1,.48,8.05Q477.47,158,467.27,158.15Z" transform="translate(-276.68 -118.75)"/><path class="cls-1" d="M479.63,158.15l-.83-25.43q17.44,0,17.44,12.72T479.63,158.15Zm5.79-7.29q5.59,0,5.59-6.67t-7.3-6.69l.86,13.36Z" transform="translate(-276.68 -118.75)"/><path class="cls-1" d="M502.3,158.14l-5.23-1.65L504.28,133l4.43-.31,7.77,22.61L510.94,158l-1.37-6.28-6.32,1.22Zm2.31-9.9,3.84-.6-1.76-8.35Z" transform="translate(-276.68 -118.75)"/><path class="cls-1" d="M530.26,158.22l-6.66-9.81.42,8.18-6.71.95,1.51-24.67q16.47,1.22,17,7.82c0,.36,0,1,0,1.82q0,5-6.07,7l5.34,4.35Zm-7-13.48q7.34,0,7.33-3.79,0-2.13-7.49-3.17Z" transform="translate(-276.68 -118.75)"/><path class="cls-1" d="M402.28,187.93l.33-25.73,5.16-.42,1.35,24.86Z" transform="translate(-276.68 -118.75)"/><path class="cls-1" d="M423.16,187.88l-7.38-14.64,1.46,12.3-6,1.51L410,163.81l6.08-1.05,7.12,14.08.1-14.16,7.55-.78-2.89,25.3Z" transform="translate(-276.68 -118.75)"/><path class="cls-1" d="M435.83,187.28l1.23-18.16-5.43-.46L432,163l14.94-.9.53,7.87-5.81-.61.65,16.22Z" transform="translate(-276.68 -118.75)"/><path class="cls-1" d="M448.33,187.68l.53-23.45,12.9-2.25.32,6.35-8.25.88.08,4.16,4.71-.55.17,4.62-4.6.45.05,4.51,8.1-.61,1.07,5.38Z" transform="translate(-276.68 -118.75)"/><path class="cls-1" d="M477.19,187.22l-6.66-9.81.41,8.18-6.7.95,1.51-24.67q16.47,1.22,17,7.82c0,.36.05,1,.05,1.82q0,5-6.08,7l5.35,4.35Zm-7-13.48q7.32,0,7.32-3.79,0-2.13-7.49-3.17Z" transform="translate(-276.68 -118.75)"/><path class="cls-1" d="M496.87,187.88l-7.38-14.64,1.46,12.3-6,1.51-1.33-23.24,6.08-1.05,7.12,14.08.1-14.16,7.55-.78-2.89,25.3Z" transform="translate(-276.68 -118.75)"/><path class="cls-1" d="M508.86,186.64l-2.07-5.55a33.68,33.68,0,0,0,3.73.2c1.94,0,3-.82,3.26-2.46a1.52,1.52,0,0,0,0-.34c0-1-1.4-1.8-4.21-2.51s-4.23-2.33-4.26-4.85c0-1.25,0-2.26.08-3q.54-5.43,11.71-6.34l1,5.71h-.33c-3.68,0-5.62,1-5.84,2.85a1,1,0,0,0,0,.34q0,1.62,4.63,2.37t4.62,4.9v2.92Q521.08,186.27,508.86,186.64Z" transform="translate(-276.68 -118.75)"/><path class="cls-1" d="M533.48,186.89l-.08-8.4-4.82-.67-.63,8.93L522,184.58l2.31-22.73,5.36.78-.48,10.49,4.12.55-.07-10.34,5.06-1.5,3.36,24.23Z" transform="translate(-276.68 -118.75)"/><path class="cls-1" d="M542.5,187.93l.33-25.73,5.16-.42,1.35,24.86Z" transform="translate(-276.68 -118.75)"/><path class="cls-1" d="M551.46,187.09l-1.29-24.76a45.61,45.61,0,0,1,7.27-.61,17.44,17.44,0,0,1,2.84-.25q7.23,0,7.8,7.65,0,7.49-10.34,7.49h-1l1.08,9.23Zm4.12-15c5,0,7.44-1.13,7.44-3.37l0-.22a2.75,2.75,0,0,0-3.07-2.8,32.83,32.83,0,0,0-5,.58Z" transform="translate(-276.68 -118.75)"/><path class="cls-1" d="M405.8,215.64l-2.08-5.55a34,34,0,0,0,3.74.2c1.94,0,3-.82,3.25-2.46a1.44,1.44,0,0,0,0-.34c0-1-1.41-1.8-4.21-2.51s-4.23-2.33-4.26-4.85c0-1.25,0-2.26.08-3q.54-5.43,11.71-6.34l1,5.71h-.33q-5.52,0-5.85,2.85a1.46,1.46,0,0,0,0,.34q0,1.62,4.62,2.37t4.63,4.9v2.92Q418,215.27,405.8,215.64Z" transform="translate(-276.68 -118.75)"/><path class="cls-1" d="M428.68,216.15q-9.74-.12-9.73-12.78a55.64,55.64,0,0,1,1.13-10.66l6.45,1.69a45,45,0,0,0-1.51,10c.63,3.2,1.86,4.84,3.67,4.9q4.5,0,4.5-7.8a48.52,48.52,0,0,0-.65-7.49l5.85-2.49a67.3,67.3,0,0,1,.48,8.05Q438.87,216,428.68,216.15Z" transform="translate(-276.68 -118.75)"/><path class="cls-1" d="M444.21,216.3c-1.46,0-2.8,0-4-.13l.49-23.46a20.64,20.64,0,0,1,8-2,6,6,0,0,1,4.57,1.69,6.38,6.38,0,0,1,1.62,4.6,7.17,7.17,0,0,1-3,5.53q5.42,1.78,5.42,5.81Q457.3,216.3,444.21,216.3Zm.44-15.14q4.73-.93,4.73-4.1c0-1.95-.62-2.92-1.86-2.92a12.68,12.68,0,0,0-3,.6Zm.64,11.16Q452,212,452,208.37c0-2.41-1.85-3.61-5.53-3.61h-1.38Z" transform="translate(-276.68 -118.75)"/><path class="cls-1" d="M458.13,216.07l.83-24.54,5.51-.73,3.67,11.46,4.31-11.16,6.26.45,1.1,23.56-6.09.51-.34-11-5.16,5.58-4.88-5,.35,9.74Z" transform="translate(-276.68 -118.75)"/><path class="cls-1" d="M480.64,216.93,481,191.2l5.16-.42,1.35,24.86Z" transform="translate(-276.68 -118.75)"/><path class="cls-1" d="M491.83,215.64l-2.08-5.55a33.86,33.86,0,0,0,3.74.2c1.93,0,3-.82,3.25-2.46a1.44,1.44,0,0,0,0-.34c0-1-1.41-1.8-4.21-2.51s-4.23-2.33-4.26-4.85c0-1.25,0-2.26.08-3q.54-5.43,11.71-6.34l1,5.71h-.33q-5.52,0-5.85,2.85a1.46,1.46,0,0,0,0,.34q0,1.62,4.62,2.37c3.08.5,4.63,2.13,4.63,4.9v2.92Q504,215.27,491.83,215.64Z" transform="translate(-276.68 -118.75)"/><path class="cls-1" d="M508.5,215.64l-2.08-5.55a33.86,33.86,0,0,0,3.74.2c1.93,0,3-.82,3.25-2.46a1.52,1.52,0,0,0,0-.34c0-1-1.4-1.8-4.21-2.51s-4.22-2.33-4.25-4.85c0-1.25,0-2.26.08-3q.53-5.43,11.7-6.34l1,5.71h-.34q-5.51,0-5.84,2.85a1.46,1.46,0,0,0,0,.34q0,1.62,4.62,2.37t4.62,4.9v2.92Q520.72,215.27,508.5,215.64Z" transform="translate(-276.68 -118.75)"/><path class="cls-1" d="M521.64,216.93,522,191.2l5.16-.42,1.34,24.86Z" transform="translate(-276.68 -118.75)"/><path class="cls-1" d="M538.48,217.66a7.94,7.94,0,0,1-6.33-3.22q-2.64-3.21-2.64-8.75,0-6.91,2.67-10.79t6.3-3.87c2.43,0,4.54,1.29,6.31,3.87s2.65,6.18,2.65,10.79q0,5.53-2.64,8.75A7.92,7.92,0,0,1,538.48,217.66Zm.5-6.89a3.61,3.61,0,0,0,3.08-1.79,9.92,9.92,0,0,0,1.23-5.54,7.36,7.36,0,0,0-1.23-4.25,3.54,3.54,0,0,0-6.17,0,7.36,7.36,0,0,0-1.23,4.25,9.92,9.92,0,0,0,1.23,5.54A3.63,3.63,0,0,0,539,210.77Z" transform="translate(-276.68 -118.75)"/><path class="cls-1" d="M561.69,216.88l-7.39-14.64,1.46,12.3-6,1.51-1.33-23.24,6.08-1.05,7.12,14.08.1-14.16,7.55-.78-2.88,25.3Z" transform="translate(-276.68 -118.75)"/><path class="cls-1" d="M405.8,244.64l-2.08-5.55a34,34,0,0,0,3.74.2c1.94,0,3-.82,3.25-2.46a1.44,1.44,0,0,0,0-.34c0-1-1.41-1.8-4.21-2.51s-4.23-2.33-4.26-4.85c0-1.25,0-2.26.08-3q.54-5.43,11.71-6.34l1,5.71h-.33q-5.52,0-5.85,2.85a1.46,1.46,0,0,0,0,.34q0,1.62,4.62,2.37t4.63,4.9v2.92Q418,244.27,405.8,244.64Z" transform="translate(-276.68 -118.75)"/><path class="cls-1" d="M432.33,244.57l-6.89-1,.66-8.25-7.15-8,5.69-5.13,4.3,6.94,3.59-8.66,7.62,2.85-8.45,12Z" transform="translate(-276.68 -118.75)"/><path class="cls-1" d="M444.5,244.64l-2.08-5.55a33.86,33.86,0,0,0,3.74.2c1.93,0,3-.82,3.25-2.46a1.52,1.52,0,0,0,0-.34c0-1-1.4-1.8-4.2-2.51s-4.23-2.33-4.26-4.85c0-1.25,0-2.26.08-3q.53-5.43,11.7-6.34l1,5.71h-.34q-5.51,0-5.84,2.85a1.46,1.46,0,0,0,0,.34q0,1.62,4.62,2.37c3.08.5,4.63,2.13,4.63,4.9v2.92Q456.72,244.27,444.5,244.64Z" transform="translate(-276.68 -118.75)"/><path class="cls-1" d="M461.85,245.28l1.22-18.16-5.42-.46L458,221l14.95-.9.53,7.87-5.81-.61.64,16.22Z" transform="translate(-276.68 -118.75)"/><path class="cls-1" d="M474.35,245.68l.53-23.45,12.9-2.25.31,6.35-8.25.88.08,4.16,4.72-.55.17,4.62-4.6.45.05,4.51,8.1-.61,1.06,5.38Z" transform="translate(-276.68 -118.75)"/><path class="cls-1" d="M490.25,245.07l.83-24.54,5.51-.73,3.67,11.46,4.32-11.16,6.26.45,1.09,23.56-6.09.51-.33-11-5.17,5.58-4.88-5,.35,9.74Z" transform="translate(-276.68 -118.75)"/><line class="cls-2" x1="110.03" y1="10" x2="110.03" y2="137.2"/></svg>